<svg width="17" height="10" viewBox="0 0 17 10" fill="none" xmlns="http://www.w3.org/2000/svg">
<path d="M0.516 4.812C0.516 3.996 0.7 3.264 1.068 2.616C1.436 1.96 1.936 1.448 2.568 1.08C3.208 0.712 3.916 0.528 4.692 0.528C5.604 0.528 6.4 0.748 7.08 1.188C7.76 1.628 8.256 2.252 8.568 3.06H7.26C7.028 2.556 6.692 2.168 6.252 1.896C5.82 1.624 5.3 1.488 4.692 1.488C4.108 1.488 3.584 1.624 3.12 1.896C2.656 2.168 2.292 2.556 2.028 3.06C1.764 3.556 1.632 4.14 1.632 4.812C1.632 5.476 1.764 6.06 2.028 6.564C2.292 7.06 2.656 7.444 3.12 7.716C3.584 7.988 4.108 8.124 4.692 8.124C5.3 8.124 5.82 7.992 6.252 7.728C6.692 7.456 7.028 7.068 7.26 6.564H8.568C8.256 7.364 7.76 7.984 7.08 8.424C6.4 8.856 5.604 9.072 4.692 9.072C3.916 9.072 3.208 8.892 2.568 8.532C1.936 8.164 1.436 7.656 1.068 7.008C0.7 6.36 0.516 5.628 0.516 4.812ZM16.6375 0.636V9H15.5455V5.208H11.2855V9H10.1935V0.636H11.2855V4.308H15.5455V0.636H16.6375Z" fill="#F6F6F6"/>
</svg>
